<svg width="90" height="91" viewBox="0 0 90 91" fill="none" xmlns="http://www.w3.org/2000/svg">
<path d="M84.3187 35.2706C82.804 33.67 81.2371 32.0206 80.6464 30.5703C80.1 29.2419 80.0679 27.04 80.0357 24.9072C79.9754 20.9422 79.9112 16.4491 76.8214 13.325C73.7317 10.2009 69.2879 10.1359 65.3665 10.075C63.2571 10.0425 61.0795 10.01 59.7656 9.4575C58.3312 8.86031 56.7 7.27594 55.117 5.74437C52.3406 3.05094 49.1946 0 45 0C40.8054 0 37.6594 3.05094 34.883 5.74437C33.3 7.27594 31.6687 8.86031 30.2344 9.4575C28.9286 10.01 26.7429 10.0425 24.6335 10.075C20.7121 10.1359 16.2683 10.2009 13.1786 13.325C10.0888 16.4491 10.0446 20.9422 9.96428 24.9072C9.93214 27.04 9.9 29.2419 9.35357 30.5703C8.76295 32.0206 7.19598 33.67 5.68125 35.2706C3.01741 38.0737 0 41.2588 0 45.5C0 49.7412 3.01741 52.9222 5.68125 55.7294C7.19598 57.33 8.76295 58.9794 9.35357 60.4297C9.9 61.7581 9.93214 63.96 9.96428 66.0928C10.0246 70.0578 10.0888 74.5509 13.1786 77.675C16.2683 80.7991 20.7121 80.8641 24.6335 80.925C26.7429 80.9575 28.9205 80.99 30.2344 81.5425C31.6647 82.1397 33.3 83.7241 34.883 85.2556C37.6594 87.9491 40.8054 91 45 91C49.1946 91 52.3406 87.9491 55.117 85.2556C56.7 83.7241 58.3312 82.1397 59.7656 81.5425C61.0795 80.99 63.2571 80.9575 65.3665 80.925C69.2879 80.8641 73.7317 80.7991 76.8214 77.675C79.9112 74.5509 79.9754 70.0578 80.0357 66.0928C80.0679 63.96 80.1 61.7581 80.6464 60.4297C81.2371 58.9834 82.804 57.33 84.3187 55.7294C86.9826 52.9262 90 49.7412 90 45.5C90 41.2588 86.9826 38.0778 84.3187 35.2706Z" fill="url(#paint0_linear_705_240)"/>
<path d="M83.5934 35.959L83.5924 35.958L83.546 35.9089C82.8084 35.1295 82.0315 34.3086 81.3647 33.5005C80.6909 32.684 80.0741 31.8158 79.7207 30.9485C79.7206 30.9481 79.7204 30.9478 79.7203 30.9475L80.6464 30.5703C80.1011 29.2445 80.068 27.0487 80.0359 24.9198L83.5934 35.959ZM83.5934 35.959C86.3205 38.8329 89 41.7254 89 45.5C89 49.2746 86.3201 52.1717 83.5939 55.0405L83.5924 55.042L83.5668 55.0691C82.8226 55.8555 82.0375 56.685 81.3645 57.5012C80.691 58.318 80.0745 59.1858 79.7211 60.0504C79.3876 60.8619 79.2339 61.8702 79.1515 62.8781C79.0688 63.8906 79.0521 64.9973 79.0363 66.0464L79.0358 66.0776C78.9742 70.1336 78.8698 74.1817 76.1104 76.9718C73.3553 79.7575 69.3622 79.8628 65.351 79.9251L65.3201 79.9256C64.2828 79.9416 63.1871 79.9584 62.1845 80.0422C61.1874 80.1255 60.1873 80.2811 59.3813 80.6193C58.5202 80.9778 57.6599 81.603 56.8523 82.2843C56.0529 82.9586 55.241 83.7442 54.4702 84.49L54.4216 84.5369L54.4206 84.5379C51.5743 87.2992 48.7193 90 45 90C41.2807 90 38.4257 87.2992 35.5793 84.5379L35.5784 84.5369L35.5515 84.5109C34.7738 83.7585 33.9533 82.9647 33.146 82.2841C32.3385 81.6033 31.4789 80.9787 30.6208 80.6202C29.8144 80.2813 28.8135 80.1256 27.8155 80.0422C26.8129 79.9584 25.7172 79.9416 24.6799 79.9256L24.649 79.9251C20.6378 79.8628 16.6447 79.7575 13.8896 76.9718C11.1302 74.1818 11.0258 70.1337 10.9642 66.0777C10.9642 66.0777 10.9642 66.0777 10.9642 66.0776L10.9637 66.0467C10.9479 64.9975 10.9312 63.8907 10.8485 62.8781C10.7661 61.8703 10.6124 60.862 10.2789 60.0506C9.92546 59.1836 9.3088 58.3157 8.63528 57.4995C7.96852 56.6914 7.19163 55.8705 6.454 55.0911L6.40758 55.042L6.40663 55.041C3.67951 52.1671 1 49.2746 1 45.5C1 41.7254 3.67987 38.8283 6.40614 35.9595L6.40758 35.958L6.454 35.9089C7.19163 35.1295 7.96852 34.3086 8.63528 33.5005C9.30889 32.6842 9.92561 31.8162 10.2791 30.9491C10.6125 30.1377 10.7661 29.1296 10.8485 28.1219C10.9312 27.1093 10.9479 26.0025 10.9637 24.9533L10.9641 24.9274C10.9641 24.9266 10.9641 24.9258 10.9641 24.9249C11.0465 20.86 11.1308 16.8176 13.8896 14.0282C16.6446 11.2425 20.6377 11.1372 24.6489 11.0749C24.6489 11.0749 24.649 11.0749 24.649 11.0749L24.6815 11.0744C25.7184 11.0584 26.8154 11.0415 27.8185 10.9578C28.816 10.8745 29.8178 10.719 30.6214 10.3796C31.4815 10.0209 32.3409 9.39628 33.1477 8.71569C33.9471 8.04139 34.7591 7.25576 35.5299 6.50995L35.5784 6.46307L35.5793 6.46212C38.4257 3.70076 41.2807 1 45 1C48.7193 1 51.5743 3.70076 54.4206 6.46212L54.4216 6.46307L54.4701 6.50997C55.2409 7.25577 56.0529 8.0414 56.8523 8.71569C57.6594 9.39654 58.5191 10.0214 59.3796 10.38L83.5934 35.959Z" stroke="url(#paint1_linear_705_240)" stroke-opacity="0.75" stroke-width="2" style="mix-blend-mode:hard-card"/>
<defs>
<linearGradient id="paint0_linear_705_240" x1="0" y1="0" x2="90" y2="91" gradientUnits="userSpaceOnUse">
<stop stop-color="#FE9458"/>
<stop offset="0.557292" stop-color="#FF3D00"/>
<stop offset="1" stop-color="#FF0000"/>
</linearGradient>
<linearGradient id="paint1_linear_705_240" x1="-76" y1="-70.5" x2="76" y2="70.5" gradientUnits="userSpaceOnUse">
<stop stop-color="#FEFFE2"/>
<stop offset="1" stop-color="#FFF9C2" stop-opacity="0"/>
</linearGradient>
</defs>
</svg>
