<svg width="33" height="33" viewBox="0 0 33 33" fill="none" xmlns="http://www.w3.org/2000/svg">
<path d="M25.0891 16.7663L18.6378 14.3913L16.2628 7.93504C16.1222 7.55295 15.8677 7.2232 15.5338 6.99027C15.1998 6.75735 14.8025 6.63246 14.3953 6.63246C13.9882 6.63246 13.5908 6.75735 13.2569 6.99027C12.9229 7.2232 12.6685 7.55295 12.5278 7.93504L10.1503 14.3838L3.69406 16.7588C3.31197 16.8994 2.98222 17.1539 2.74929 17.4878C2.51637 17.8218 2.39148 18.2191 2.39148 18.6263C2.39148 19.0334 2.51637 19.4308 2.74929 19.7647C2.98222 20.0987 3.31197 20.3531 3.69406 20.4938L10.1416 22.8838L12.5166 29.3363C12.6572 29.7184 12.9117 30.0481 13.2456 30.2811C13.5796 30.514 13.9769 30.6389 14.3841 30.6389C14.7912 30.6389 15.1886 30.514 15.5225 30.2811C15.8565 30.0481 16.1109 29.7184 16.2516 29.3363L18.6266 22.885L25.0828 20.51C25.4649 20.3694 25.7947 20.1149 26.0276 19.781C26.2605 19.447 26.3854 19.0497 26.3854 18.6425C26.3854 18.2354 26.2605 17.838 26.0276 17.5041C25.7947 17.1701 25.4649 16.9157 25.0828 16.775L25.0891 16.7663ZM17.9403 21.0088C17.6701 21.108 17.4247 21.2648 17.2211 21.4683C17.0176 21.6719 16.8607 21.9173 16.7616 22.1875L14.3866 28.62L12.0166 22.1825C11.9173 21.9137 11.761 21.6696 11.5584 21.467C11.3557 21.2644 11.1116 21.1081 10.8428 21.0088L4.41031 18.6338L10.8428 16.2588C11.1116 16.1595 11.3557 16.0032 11.5584 15.8006C11.761 15.598 11.9173 15.3538 12.0166 15.085L14.3916 8.65254L16.7666 15.085C16.8657 15.3553 17.0226 15.6007 17.2261 15.8042C17.4297 16.0078 17.6751 16.1646 17.9453 16.2638L24.3778 18.6388L17.9403 21.0088ZM18.3916 5.63379C18.3916 5.36857 18.4969 5.11422 18.6845 4.92668C18.872 4.73915 19.1263 4.63379 19.3916 4.63379H21.3916V2.63379C21.3916 2.36857 21.4969 2.11422 21.6845 1.92668C21.872 1.73915 22.1263 1.63379 22.3916 1.63379C22.6568 1.63379 22.9111 1.73915 23.0987 1.92668C23.2862 2.11422 23.3916 2.36857 23.3916 2.63379V4.63379H25.3916C25.6568 4.63379 25.9111 4.73915 26.0987 4.92668C26.2862 5.11422 26.3916 5.36857 26.3916 5.63379C26.3916 5.89901 26.2862 6.15336 26.0987 6.3409C25.9111 6.52843 25.6568 6.63379 25.3916 6.63379H23.3916V8.63379C23.3916 8.89901 23.2862 9.15336 23.0987 9.3409C22.9111 9.52843 22.6568 9.63379 22.3916 9.63379C22.1263 9.63379 21.872 9.52843 21.6845 9.3409C21.4969 9.15336 21.3916 8.89901 21.3916 8.63379V6.63379H19.3916C19.1263 6.63379 18.872 6.52843 18.6845 6.3409C18.4969 6.15336 18.3916 5.89901 18.3916 5.63379ZM31.3916 11.6338C31.3916 11.899 31.2862 12.1534 31.0987 12.3409C30.9111 12.5284 30.6568 12.6338 30.3916 12.6338H29.3916V13.6338C29.3916 13.899 29.2862 14.1534 29.0987 14.3409C28.9111 14.5284 28.6568 14.6338 28.3916 14.6338C28.1263 14.6338 27.872 14.5284 27.6845 14.3409C27.4969 14.1534 27.3916 13.899 27.3916 13.6338V12.6338H26.3916C26.1263 12.6338 25.872 12.5284 25.6845 12.3409C25.4969 12.1534 25.3916 11.899 25.3916 11.6338C25.3916 11.3686 25.4969 11.1142 25.6845 10.9267C25.872 10.7391 26.1263 10.6338 26.3916 10.6338H27.3916V9.63379C27.3916 9.36857 27.4969 9.11422 27.6845 8.92668C27.872 8.73915 28.1263 8.63379 28.3916 8.63379C28.6568 8.63379 28.9111 8.73915 29.0987 8.92668C29.2862 9.11422 29.3916 9.36857 29.3916 9.63379V10.6338H30.3916C30.6568 10.6338 30.9111 10.7391 31.0987 10.9267C31.2862 11.1142 31.3916 11.3686 31.3916 11.6338Z" fill="black"/>
</svg>
