<svg width="1081" height="1081" viewBox="0 0 1081 1081" fill="none" xmlns="http://www.w3.org/2000/svg">
<g clip-path="url(#clip0_95_191)">
<g clip-path="url(#clip1_95_191)">
<path d="M1258.87 760.83C1246.36 744.534 1231.01 731.064 1213.22 720.843C1195.42 710.567 1176.08 704.007 1155.77 701.308C1135.4 698.623 1115.05 699.947 1095.23 705.257L783.813 788.701C736.69 801.328 708.641 849.909 721.268 897.032L817.132 1254.8C832.473 1312.05 891.594 1346.19 948.846 1330.85L1306.62 1234.98C1353.74 1222.36 1381.79 1173.78 1369.16 1126.65L1285.72 815.234C1280.41 795.416 1271.38 777.126 1258.87 760.83ZM1351.55 1131.37C1361.56 1168.75 1339.33 1207.34 1301.9 1217.37L944.126 1313.23C896.563 1325.98 847.493 1297.65 834.748 1250.08L738.884 892.312C728.868 854.933 751.099 816.348 788.533 806.317L1099.95 722.873C1106.83 721.029 1113.75 719.765 1120.75 719.012L1141.37 795.972C1146.35 814.579 1165.49 825.676 1184.16 820.675L1261.12 800.054C1263.96 806.49 1266.33 813.113 1268.17 819.995L1351.6 1131.36L1351.55 1131.37Z" fill="white"/>
<path d="M887.784 1034.26C885.222 1037.25 880.768 1039.56 874.382 1041.27C870.198 1042.39 865.577 1042.98 860.503 1042.99C855.43 1042.99 850.558 1042.64 845.817 1041.91C841.077 1041.17 836.971 1040.38 833.501 1039.54C830.016 1038.65 827.71 1037.97 826.582 1037.5L814.841 1080C816.307 1080.85 820.351 1082.07 826.972 1083.65C833.593 1085.24 841.902 1086.09 852.023 1086.21C862.09 1086.34 873.123 1084.8 885.069 1081.6C893.162 1079.43 900.768 1076.33 908.014 1072.32C915.26 1068.32 921.4 1063.49 926.474 1057.76C931.548 1052.03 935.116 1045.53 937.053 1038.23C938.99 1030.92 938.811 1022.77 936.422 1013.85C934.548 1006.86 931.711 1000.89 927.923 996.009C924.121 991.069 919.616 987.025 914.447 983.808C909.277 980.591 903.555 978.171 897.264 976.493C890.973 974.816 884.43 973.737 877.524 973.286C870.173 972.719 864.189 971.962 859.529 971.087C854.909 970.141 851.406 968.956 848.988 967.421C846.571 965.886 845.085 963.865 844.406 961.332C843.433 957.699 844.431 954.599 847.373 951.923C850.328 949.302 854.496 947.241 859.891 945.796C864.075 944.675 868.506 944.254 873.143 944.605C877.78 944.955 882.021 945.589 885.77 946.591C889.575 947.577 892.271 948.389 893.887 949.136L905.336 908.189C904.014 907.658 900.529 906.763 894.881 905.503C889.233 904.243 882.033 903.576 873.321 903.432C864.609 903.289 854.941 904.64 844.426 907.458C834.352 910.157 825.345 914.636 817.445 920.824C809.559 927.067 803.808 934.449 800.206 943.026C796.603 951.602 796.122 960.817 798.763 970.671C801.374 980.415 805.539 988.032 811.327 993.561C817.101 999.035 823.722 1003.04 831.159 1005.48C838.61 1007.96 846.366 1009.6 854.315 1010.42C862.374 1011.21 868.888 1012.18 873.882 1013.2C878.821 1014.24 882.619 1015.64 885.136 1017.33C887.652 1019.01 889.322 1021.28 890.059 1024.03C891.092 1027.89 890.347 1031.27 887.784 1034.26Z" fill="white"/>
<path d="M999.808 1047.61L1043.74 1035.84L1009.35 907.517L1046.95 897.442L1036.7 859.183L917.574 891.103L927.825 929.363L965.425 919.288L999.808 1047.61Z" fill="white"/>
<path d="M1100.78 842.013L1056.85 853.784L1101.47 1020.31L1145.4 1008.54L1100.78 842.013Z" fill="white"/>
<path d="M1129.52 1057.81L1080.08 1071.06L1054.65 1147.68L1037.2 1082.55L993.267 1094.32L1037.9 1260.9L1081.83 1249.13L1062.73 1177.84L1128.85 1236.54L1181.09 1222.54L1096.5 1152.16L1129.52 1057.81Z" fill="white"/>
</g>
<g clip-path="url(#clip2_95_191)">
<path d="M178.865 760.83C166.356 744.534 151.006 731.064 133.221 720.843C115.422 710.567 96.0818 704.007 75.7696 701.308C55.4023 698.623 35.0472 699.947 15.2292 705.257L-296.189 788.701C-343.312 801.328 -371.361 849.909 -358.734 897.032L-262.87 1254.8C-247.529 1312.05 -188.408 1346.19 -131.156 1330.85L226.615 1234.98C273.738 1222.36 301.786 1173.78 289.16 1126.65L205.715 815.234C200.405 795.416 191.374 777.126 178.865 760.83ZM271.544 1131.37C281.559 1168.75 259.329 1207.34 221.895 1217.37L-135.876 1313.23C-183.439 1325.98 -232.509 1297.65 -245.254 1250.08L-341.118 892.312C-351.134 854.933 -328.903 816.348 -291.469 806.317L19.9494 722.873C26.8306 721.029 33.7493 719.765 40.7457 719.012L61.3671 795.972C66.3528 814.579 85.4929 825.676 104.155 820.675L181.115 800.054C183.961 806.49 186.325 813.113 188.169 819.995L271.599 1131.36L271.544 1131.37Z" fill="white"/>
<path d="M-80.1937 1047.61L-36.2637 1035.84L-70.6474 907.517L-33.0482 897.442L-43.2999 859.183L-162.428 891.103L-152.177 929.363L-114.577 919.288L-80.1937 1047.61Z" fill="white"/>
<path d="M20.7785 842.013L-23.1515 853.784L21.4692 1020.31L65.3992 1008.54L20.7785 842.013Z" fill="white"/>
<path d="M49.5142 1057.81L0.0791735 1071.06L-25.3548 1147.68L-42.8049 1082.55L-86.7349 1094.32L-42.0994 1260.9L1.83058 1249.13L-17.2715 1177.84L48.8434 1236.54L101.086 1222.54L16.4983 1152.16L49.5142 1057.81Z" fill="white"/>
<path d="M149.745 1091.67L108.088 1042.12L54.689 1056.43L141.284 1147.51L157.347 1207.46L201.277 1195.69L185.214 1135.74L214.279 1013.67L161.156 1027.9L149.745 1091.67Z" fill="white"/>
</g>
<g clip-path="url(#clip3_95_191)">
<path d="M1258.87 -319.174C1246.36 -335.47 1231.01 -348.94 1213.22 -359.161C1195.42 -369.438 1176.08 -375.997 1155.77 -378.697C1135.4 -381.382 1115.05 -380.058 1095.23 -374.747L783.813 -291.303C736.69 -278.677 708.641 -230.095 721.268 -182.972L817.132 174.798C832.473 232.051 891.594 266.184 948.846 250.844L1306.62 154.979C1353.74 142.353 1381.79 93.7713 1369.16 46.6484L1285.72 -264.77C1280.41 -284.588 1271.38 -302.878 1258.87 -319.174ZM1351.55 51.3686C1361.56 88.7476 1339.33 127.333 1301.9 137.363L944.126 233.227C896.563 245.972 847.493 217.641 834.748 170.078L738.884 -187.693C728.868 -225.072 751.099 -263.657 788.533 -273.687L1099.95 -357.131C1106.83 -358.975 1113.75 -360.239 1120.75 -360.993L1141.37 -284.033C1146.35 -265.426 1165.49 -254.329 1184.16 -259.329L1261.12 -279.95C1263.96 -273.515 1266.33 -266.891 1268.17 -260.01L1351.6 51.3538L1351.55 51.3686Z" fill="white"/>
<path d="M936.753 339.815C938.024 337.291 939.964 335.06 942.502 333.082C945.04 331.104 948.401 329.554 952.419 328.478C955.722 327.593 958.938 327.262 962.066 327.486C965.249 327.695 967.717 328.096 969.524 328.674L973.79 307.824C971.421 306.688 967.606 305.882 962.359 305.458C957.168 305.02 951.331 305.699 944.835 307.44C938.78 309.062 933.335 311.642 928.515 315.235C923.695 318.827 919.758 323.069 916.717 328.014C913.62 332.974 911.637 338.343 910.726 344.193C909.815 350.042 910.164 355.967 911.801 362.077C913.439 368.188 916.099 373.493 919.798 378.048C923.496 382.604 927.939 386.192 933.101 388.94C938.247 391.632 943.778 393.336 949.693 394.052C955.593 394.713 961.614 394.28 967.669 392.657C974.165 390.917 979.559 388.587 983.836 385.611C988.113 382.636 991.029 380.085 992.553 377.847L978.433 361.924C977.157 363.328 975.221 364.909 972.569 366.682C969.916 368.454 966.966 369.776 963.718 370.646C959.645 371.738 956.014 372.061 952.827 371.617C949.64 371.173 946.845 370.211 944.483 368.661C942.12 367.111 940.194 365.208 938.635 362.912C937.131 360.601 936.012 358.186 935.304 355.544C934.61 352.956 934.372 350.306 934.534 347.608C934.711 344.964 935.482 342.338 936.753 339.815Z" fill="white"/>
<path d="M1057.12 290.51C1052.24 287.689 1046.91 285.87 1041.11 285.125C1035.36 284.364 1029.39 284.783 1023.23 286.435C1017.17 288.057 1011.85 290.663 1007.2 294.211C1002.54 297.759 998.839 301.997 996.018 306.883C993.197 311.769 991.379 317.094 990.619 322.844C989.858 328.594 990.247 334.449 991.855 340.45C993.463 346.45 995.958 351.8 999.382 356.429C1002.8 361.058 1006.93 364.79 1011.72 367.696C1016.51 370.601 1021.82 372.364 1027.64 373.165C1033.45 373.911 1039.58 373.448 1046.08 371.707C1052.35 370.026 1057.78 367.391 1062.44 363.842C1067.09 360.294 1070.79 356.057 1073.54 351.131C1076.31 346.259 1078 340.908 1078.71 335.173C1079.41 329.438 1078.97 323.597 1077.35 317.542C1075.74 311.541 1073.2 306.262 1069.67 301.662C1066.14 297.063 1062.01 293.33 1057.12 290.51ZM1055.32 335.539C1054.52 339.354 1052.93 342.671 1050.43 345.464C1047.93 348.257 1044.68 350.192 1040.66 351.269C1036.64 352.346 1032.85 352.299 1029.29 351.128C1025.73 349.958 1022.64 347.895 1020.09 344.979C1017.49 342.078 1015.64 338.501 1014.54 334.372C1013.43 330.244 1013.24 326.224 1014.04 322.409C1014.85 318.593 1016.44 315.276 1018.94 312.483C1021.42 309.635 1024.68 307.7 1028.7 306.623C1032.71 305.547 1036.5 305.593 1040.08 306.819C1043.65 308.045 1046.72 310.053 1049.28 312.968C1051.88 315.869 1053.71 319.391 1054.83 323.575C1055.94 327.704 1056.13 331.723 1055.32 335.539Z" fill="white"/>
<path d="M1126.48 318.596L1095.31 268.771L1070.87 275.32L1121.78 349.711L1146.06 343.206L1153.01 253.312L1128.62 259.847L1126.48 318.596Z" fill="white"/>
<path d="M887.784 -45.7446C885.222 -42.7569 880.768 -40.4424 874.382 -38.7313C870.198 -37.6102 865.577 -37.021 860.503 -37.0186C855.43 -37.0162 850.558 -37.3628 845.817 -38.0987C841.077 -38.8346 836.971 -39.6227 833.501 -40.4629C830.016 -41.3581 827.71 -42.0382 826.582 -42.5031L814.841 -0.00243682C816.307 0.843852 820.351 2.06152 826.972 3.65056C833.593 5.2396 841.902 6.08138 852.023 6.20143C862.09 6.33623 873.123 4.79581 885.069 1.59492C893.162 -0.573421 900.768 -3.67369 908.014 -7.68028C915.26 -11.6869 921.4 -16.5182 926.474 -22.2439C931.548 -27.9697 935.116 -34.472 937.053 -41.7763C938.99 -49.0806 938.811 -57.2341 936.422 -66.1522C934.548 -73.1436 931.711 -79.1095 927.923 -83.995C924.121 -88.9356 919.616 -92.9795 914.447 -96.1966C909.277 -99.4137 903.555 -101.834 897.264 -103.511C890.973 -105.189 884.43 -106.267 877.524 -106.718C870.173 -107.286 864.189 -108.042 859.529 -108.918C854.909 -109.863 851.406 -111.048 848.988 -112.584C846.571 -114.119 845.085 -116.14 844.406 -118.672C843.433 -122.305 844.431 -125.405 847.373 -128.081C850.328 -130.702 854.496 -132.763 859.891 -134.209C864.075 -135.33 868.506 -135.75 873.143 -135.399C877.78 -135.049 882.021 -134.415 885.77 -133.414C889.575 -132.427 892.271 -131.615 893.887 -130.868L905.336 -171.816C904.014 -172.347 900.529 -173.242 894.881 -174.502C889.233 -175.761 882.033 -176.428 873.321 -176.572C864.609 -176.716 854.941 -175.364 844.426 -172.547C834.352 -169.847 825.345 -165.369 817.445 -159.181C809.559 -152.938 803.808 -145.555 800.206 -136.979C796.603 -128.402 796.122 -119.187 798.763 -109.333C801.374 -99.5892 805.539 -91.9728 811.327 -86.4436C817.101 -80.9695 823.722 -76.9611 831.159 -74.5287C838.61 -72.0412 846.366 -70.4021 854.315 -69.5819C862.374 -68.7913 868.888 -67.8225 873.882 -66.8006C878.821 -65.7639 882.619 -64.3624 885.136 -62.6766C887.652 -60.9909 889.322 -58.7241 890.059 -55.9716C891.092 -52.1181 890.347 -48.7324 887.784 -45.7446Z" fill="white"/>
<path d="M903.142 96.3485C905.724 91.2315 909.643 86.7002 914.815 82.6594C920.001 78.6736 926.723 75.5744 934.981 73.3618C941.642 71.577 948.183 70.8863 954.564 71.3596C961 71.8182 966.045 72.5904 969.674 73.8012L978.364 31.5869C973.501 29.2909 965.815 27.6921 955.252 26.8053C944.689 25.9185 932.837 27.2653 919.735 30.776C907.458 34.0653 896.418 39.3247 886.739 46.5796C877.004 53.8491 869.048 62.4713 862.76 72.4754C856.527 82.4648 852.44 93.4135 850.593 105.237C848.69 117.075 849.446 129.145 852.765 141.531C856.084 153.918 861.505 164.679 868.987 173.884C876.523 183.075 885.468 190.473 895.901 195.938C906.348 201.458 917.59 204.877 929.585 206.265C941.581 207.653 953.716 206.703 965.993 203.413C979.095 199.903 990.033 195.143 998.737 189.093C1007.44 183.044 1013.3 177.816 1016.36 173.396L987.729 141.183C985.137 144.06 981.208 147.237 975.864 150.852C970.519 154.467 964.509 157.14 957.903 158.91C949.646 161.122 942.275 161.799 935.79 160.941C929.306 160.082 923.632 158.062 918.837 154.922C914.042 151.781 910.065 147.95 906.987 143.287C903.923 138.68 901.641 133.686 900.225 128.401C898.824 123.172 898.333 117.816 898.682 112.294C899.087 106.758 900.56 101.466 903.142 96.3485Z" fill="white"/>
<path d="M1129.52 -22.1895L1080.08 -8.94339L1054.65 67.6717L1037.2 2.54735L993.267 14.3184L1037.9 180.9L1081.83 169.129L1062.73 97.8391L1128.85 156.532L1181.09 142.534L1096.5 72.1518L1129.52 -22.1895Z" fill="white"/>
</g>
<g clip-path="url(#clip4_95_191)">
<path d="M178.865 -319.174C166.356 -335.47 151.006 -348.94 133.221 -359.161C115.422 -369.438 96.0818 -375.997 75.7696 -378.697C55.4023 -381.382 35.0472 -380.058 15.2292 -374.747L-296.189 -291.303C-343.312 -278.677 -371.361 -230.095 -358.734 -182.972L-262.87 174.798C-247.529 232.051 -188.408 266.184 -131.156 250.844L226.615 154.979C273.738 142.353 301.786 93.7713 289.16 46.6484L205.715 -264.77C200.405 -284.588 191.374 -302.878 178.865 -319.174ZM271.544 51.3686C281.559 88.7476 259.329 127.333 221.895 137.363L-135.876 233.227C-183.439 245.972 -232.509 217.641 -245.254 170.078L-341.118 -187.693C-351.134 -225.072 -328.903 -263.657 -291.469 -273.687L19.9494 -357.131C26.8306 -358.975 33.7493 -360.239 40.7457 -360.993L61.3671 -284.033C66.3528 -265.426 85.4929 -254.329 104.155 -259.329L181.115 -279.95C183.961 -273.515 186.325 -266.891 188.169 -260.01L271.599 51.3538L271.544 51.3686Z" fill="white"/>
<path d="M-22.8781 290.51C-27.7642 287.689 -33.0895 285.87 -38.8946 285.125C-44.6446 284.364 -50.6097 284.783 -56.7754 286.435C-62.8309 288.057 -68.151 290.663 -72.8055 294.211C-77.46 297.759 -81.1628 301.997 -83.9838 306.883C-86.8047 311.769 -88.6229 317.094 -89.3833 322.844C-90.1437 328.594 -89.7549 334.449 -88.1471 340.45C-86.5393 346.45 -84.0438 351.8 -80.6204 356.429C-77.197 361.058 -73.0697 364.79 -68.279 367.696C-63.4883 370.601 -58.1777 372.364 -52.3579 373.165C-46.5529 373.911 -40.4225 373.448 -33.9266 371.707C-27.6509 370.026 -22.2207 367.391 -17.5662 363.842C-12.9117 360.294 -9.20892 356.057 -6.45775 351.131C-3.69184 346.259 -1.9985 340.908 -1.29315 335.173C-0.587806 329.438 -1.03166 323.597 -2.65423 317.542C-4.26205 311.541 -6.79781 306.262 -10.3313 301.662C-13.8648 297.063 -17.9921 293.33 -22.8781 290.51ZM-24.6782 335.539C-25.4849 339.354 -27.0742 342.671 -29.571 345.464C-32.0677 348.257 -35.3254 350.192 -39.3441 351.269C-43.3627 352.346 -47.1514 352.299 -50.7102 351.128C-54.269 349.958 -57.3589 347.895 -59.9102 344.979C-62.5166 342.078 -64.3601 338.501 -65.4664 334.372C-66.5727 330.244 -66.7648 326.224 -65.958 322.409C-65.1512 318.593 -63.5619 315.276 -61.0652 312.483C-58.5832 309.635 -55.3255 307.7 -51.3068 306.623C-47.2882 305.547 -43.4995 305.593 -39.9259 306.819C-36.3524 308.045 -33.2772 310.053 -30.7259 312.968C-28.1196 315.869 -26.2908 319.391 -25.1697 323.575C-24.0634 327.704 -23.8714 331.723 -24.6782 335.539Z" fill="white"/>
<path d="M46.4821 318.596L15.3129 268.771L-9.12939 275.32L41.7799 349.711L66.057 343.206L73.0054 253.312L48.6182 259.847L46.4821 318.596Z" fill="white"/>
<path d="M103.491 333.176L157.495 318.705L152.451 299.878L120.136 308.537L116.596 295.325L148.745 286.711L143.863 268.489L111.714 277.103L108.218 264.056L140.532 255.398L135.487 236.571L81.4833 251.041L103.491 333.176Z" fill="white"/>
<path d="M211.684 265.067C213.733 262.806 215.216 259.754 216.108 256.034C216.984 252.259 216.784 247.769 215.383 242.539C213.967 237.255 211.656 233.035 208.477 229.757C205.257 226.549 201.488 224.373 197.199 223.339C192.855 222.32 188.28 222.424 183.381 223.737L148.039 233.207L170.061 315.397L191.806 309.57L183.28 277.751L184.326 277.471L210.138 304.658L234.47 298.139L205.684 269.978C207.588 268.937 209.634 267.327 211.684 265.067ZM191.938 257.436C190.076 259.292 187.775 260.616 185.078 261.339L179.243 262.903L174.257 244.296L180.312 242.673C182.955 241.965 185.554 241.977 188.095 242.653C190.637 243.329 192.346 245.526 193.305 249.104C194.238 252.807 193.801 255.58 191.938 257.436Z" fill="white"/>
<path d="M289.656 240.516C287.114 238.955 284.245 237.717 281.19 236.884C278.079 236.065 274.863 235.511 271.445 235.306C267.832 235.035 264.839 234.657 262.592 234.197C260.29 233.752 258.593 233.144 257.391 232.404C256.19 231.664 255.455 230.681 255.115 229.415C254.643 227.653 255.115 226.111 256.586 224.773C258.071 223.49 260.1 222.474 262.742 221.766C264.834 221.206 267.029 221.03 269.313 221.186C271.597 221.341 273.69 221.665 275.537 222.173C277.384 222.681 278.732 223.087 279.54 223.461L285.214 203.236C284.545 202.944 282.837 202.516 280.076 201.899C277.314 201.282 273.742 200.941 269.414 200.862C265.085 200.783 260.368 201.456 255.194 202.843C250.239 204.17 245.756 206.375 241.853 209.427C237.951 212.478 235.095 216.135 233.342 220.381C231.588 224.627 231.333 229.179 232.631 234.024C233.915 238.813 235.997 242.621 238.834 245.283C241.686 248 244.927 249.964 248.61 251.16C252.294 252.356 256.109 253.163 260.056 253.58C264.058 253.983 267.246 254.427 269.688 254.953C272.13 255.478 273.966 256.166 275.252 257.002C276.483 257.852 277.303 258.931 277.671 260.307C278.173 262.178 277.801 263.871 276.539 265.33C275.278 266.789 273.059 267.974 269.921 268.815C267.829 269.375 265.538 269.635 263.064 269.649C260.59 269.663 258.181 269.482 255.838 269.107C253.496 268.732 251.458 268.393 249.75 267.965C248.043 267.538 246.889 267.198 246.346 266.93L240.574 287.889C241.342 288.332 243.329 288.921 246.549 289.71C249.825 290.484 253.897 290.927 258.915 290.94C263.894 291.022 269.355 290.266 275.246 288.688C279.209 287.626 282.985 286.083 286.588 284.115C290.136 282.161 293.205 279.745 295.702 276.952C298.199 274.159 299.983 270.908 300.904 267.298C301.88 263.674 301.757 259.694 300.577 255.29C299.648 251.822 298.271 248.887 296.393 246.499C294.404 244.141 292.213 242.132 289.656 240.516Z" fill="white"/>
<path d="M49.5142 -22.1895L0.0791735 -8.94339L-25.3548 67.6717L-42.8049 2.54735L-86.7349 14.3184L-42.0994 180.9L1.83058 169.129L-17.2715 97.8391L48.8434 156.532L101.086 142.534L16.4983 72.1518L49.5142 -22.1895Z" fill="white"/>
<path d="M149.745 11.6672L108.088 -37.8843L54.689 -23.5762L141.284 67.5088L157.347 127.458L201.277 115.687L185.214 55.7377L214.279 -66.3383L161.156 -52.1039L149.745 11.6672Z" fill="white"/>
</g>
</g>
<defs>
<clipPath id="clip0_95_191">
<rect width="1080" height="1080" fill="white" transform="translate(0.812744 0.5)"/>
</clipPath>
<clipPath id="clip1_95_191">
<rect width="566.387" height="708.184" fill="white" transform="translate(698.375 811.594) rotate(-15)"/>
</clipPath>
<clipPath id="clip2_95_191">
<rect width="566.387" height="708.184" fill="white" transform="translate(-381.627 811.594) rotate(-15)"/>
</clipPath>
<clipPath id="clip3_95_191">
<rect width="566.387" height="708.184" fill="white" transform="translate(698.375 -268.41) rotate(-15)"/>
</clipPath>
<clipPath id="clip4_95_191">
<rect width="566.387" height="708.184" fill="white" transform="translate(-381.627 -268.41) rotate(-15)"/>
</clipPath>
</defs>
</svg>
